# Blender 3.2.1
# www.blender.org
mtllib japansword2.mtl
o Cube
v -0.724199 4.095515 -0.526789
v 0.727359 4.086922 0.444648
v -0.727359 4.086922 0.444648
v -0.000000 4.087714 1.854523
v 0.000000 21.404461 -1.669483
v -0.245209 21.415413 -1.974268
v 0.246440 21.403288 -2.651657
v 0.245209 21.415413 -1.974268
v -0.246440 21.403288 -2.651657
v -0.245370 21.415987 -3.328397
v 0.000000 21.403971 -3.674760
v 0.245370 21.415987 -3.328397
v -0.000000 3.374899 1.664595
v -0.618120 3.385850 1.287282
v 0.621224 3.373729 0.448700
v 0.618120 3.385850 1.287282
v -0.621224 3.373729 0.448700
v -0.618526 3.386425 -0.389080
v -0.000000 3.374408 -0.505956
v 0.618526 3.386425 -0.389080
v -0.000000 3.360509 0.525473
v -0.374591 17.730623 -1.659456
v -0.374591 14.124710 -0.826022
v -0.419857 10.518799 -0.237570
v -0.567884 6.912888 0.151362
v -0.565417 6.925583 -0.411006
v -0.418033 10.531496 -0.998875
v -0.372964 14.137409 -1.551956
v -0.372964 17.743320 -2.336197
v 0.000000 17.731794 -0.677283
v 0.000000 14.125881 0.227545
v 0.000000 10.519968 0.867334
v -0.000000 6.914057 1.363306
v -0.565046 6.925009 0.987219
v -0.417759 10.530922 0.524464
v -0.372719 14.136833 -0.099395
v -0.372719 17.742746 -0.982068
v 0.372719 17.742746 -0.982068
v 0.372719 14.136831 -0.099395
v 0.417759 10.530920 0.524464
v 0.565046 6.925009 0.987219
v 0.000000 17.731304 -2.682559
v 0.000000 14.125391 -1.911516
v 0.000000 10.519478 -1.329927
v -0.000000 6.913567 -0.799842
v 0.565417 6.925583 -0.411006
v 0.418033 10.531496 -0.998875
v 0.372964 14.137409 -1.551956
v 0.372964 17.743320 -2.336197
v 0.374591 17.730623 -1.659456
v 0.374591 14.124710 -0.826023
v 0.419857 10.518799 -0.237570
v 0.567884 6.912888 0.151362
v 0.000000 23.701641 -3.491514
v -0.080275 23.705223 -3.591292
v 0.080678 23.701256 -3.813053
v 0.080275 23.705223 -3.591292
v -0.080678 23.701256 -3.813053
v -0.080328 23.705414 -4.034600
v 0.000000 23.701479 -4.258844
v 0.080328 23.705414 -4.034600
v 0.000000 23.696930 -3.792750
vn 0.0244 0.9996 -0.0134
vn 0.0208 0.9997 0.0143
vn -0.5346 -0.0755 -0.8417
vn -0.0244 0.9996 -0.0134
vn 0.9974 -0.0722 -0.0005
vn -0.6873 -0.4514 -0.5691
vn 0.6873 -0.4514 -0.5691
vn 0.9974 -0.0718 0.0002
vn 0.5346 -0.0755 -0.8417
vn -0.0208 0.9997 0.0143
vn 0.9999 -0.0149 0.0034
vn 0.9999 -0.0153 -0.0033
vn -0.3932 0.0380 0.9187
vn -0.9999 -0.0153 -0.0033
vn 0.3932 0.0380 0.9187
vn -0.9999 -0.0149 0.0034
vn -0.9994 -0.0344 0.0013
vn -1.0000 0.0005 0.0023
vn -0.9999 -0.0122 0.0021
vn -0.9992 -0.0406 0.0025
vn 0.7388 0.1638 0.6538
vn 0.6818 0.1542 0.7151
vn 0.6554 0.1134 0.7467
vn 0.5887 0.1121 0.8005
vn -0.9994 -0.0352 -0.0017
vn -1.0000 -0.0006 -0.0027
vn -0.9999 -0.0129 -0.0025
vn -0.9991 -0.0412 -0.0025
vn -0.7388 0.1638 0.6538
vn -0.6818 0.1542 0.7151
vn -0.6554 0.1134 0.7467
vn -0.5887 0.1121 0.8005
vn 0.9994 -0.0352 -0.0017
vn 1.0000 -0.0006 -0.0027
vn 0.9999 -0.0129 -0.0025
vn 0.9991 -0.0412 -0.0025
vn 0.9994 -0.0344 0.0013
vn 1.0000 0.0005 0.0023
vn 0.9999 -0.0122 0.0021
vn 0.9992 -0.0406 0.0025
vn 0.6843 -0.2012 -0.7009
vn 0.6320 -0.1864 -0.7522
vn 0.6382 -0.1367 -0.7576
vn 0.5845 -0.1186 -0.8027
vn -0.6843 -0.2012 -0.7009
vn -0.6320 -0.1864 -0.7522
vn -0.6382 -0.1367 -0.7576
vn -0.5845 -0.1186 -0.8027
vn -0.0614 -0.9980 0.0166
vn -0.0672 -0.9977 -0.0127
vn 0.0672 -0.9977 -0.0127
vn 0.0614 -0.9980 0.0166
vn -0.8648 0.1069 0.4906
vn -0.9974 -0.0722 -0.0005
vn 0.8648 0.1069 0.4906
vn -0.9974 -0.0718 0.0002
vt 0.750000 0.750000
vt 0.875000 0.750000
vt 0.625000 0.625000
vt 0.625000 0.750000
vt 0.875000 0.625000
vt 0.875000 0.500000
vt 0.750000 0.500000
vt 0.625000 0.500000
vt 0.750000 0.750000
vt 0.875000 0.750000
vt 0.625000 0.625000
vt 0.625000 0.750000
vt 0.875000 0.625000
vt 0.875000 0.500000
vt 0.750000 0.500000
vt 0.625000 0.500000
vt 0.750000 0.625000
vt 0.875000 0.625000
vt 0.875000 0.625000
vt 0.875000 0.625000
vt 0.875000 0.625000
vt 0.875000 0.500000
vt 0.875000 0.500000
vt 0.875000 0.500000
vt 0.875000 0.500000
vt 0.750000 0.750000
vt 0.750000 0.750000
vt 0.750000 0.750000
vt 0.750000 0.750000
vt 0.875000 0.750000
vt 0.875000 0.750000
vt 0.875000 0.750000
vt 0.875000 0.750000
vt 0.625000 0.750000
vt 0.625000 0.750000
vt 0.625000 0.750000
vt 0.625000 0.750000
vt 0.750000 0.500000
vt 0.750000 0.500000
vt 0.750000 0.500000
vt 0.750000 0.500000
vt 0.625000 0.500000
vt 0.625000 0.500000
vt 0.625000 0.500000
vt 0.625000 0.500000
vt 0.625000 0.625000
vt 0.625000 0.625000
vt 0.625000 0.625000
vt 0.625000 0.625000
vt 0.750000 0.750000
vt 0.875000 0.750000
vt 0.625000 0.625000
vt 0.625000 0.750000
vt 0.875000 0.625000
vt 0.875000 0.500000
vt 0.750000 0.500000
vt 0.625000 0.500000
vt 0.750000 0.625000
s 0
usemtl Material
f 21/17/1 17/13/1 14/10/1 13/9/1
f 19/15/2 18/14/2 17/13/2 21/17/2
f 33/29/3 41/37/3 16/12/3 13/9/3
f 15/11/4 21/17/4 13/9/4 16/12/4
f 6/2/5 9/5/5 58/54/5 55/51/5
f 8/4/6 5/1/6 54/50/6 57/53/6
f 5/1/7 6/2/7 55/51/7 54/50/7
f 9/5/8 10/6/8 59/55/8 58/54/8
f 34/30/9 33/29/9 13/9/9 14/10/9
f 20/16/10 19/15/10 21/17/10 15/11/10
f 26/22/11 25/21/11 17/13/11 18/14/11
f 25/21/12 34/30/12 14/10/12 17/13/12
f 46/42/13 45/41/13 19/15/13 20/16/13
f 41/37/14 53/49/14 15/11/14 16/12/14
f 45/41/15 26/22/15 18/14/15 19/15/15
f 53/49/16 46/42/16 20/16/16 15/11/16
f 7/3/17 12/8/17 49/45/17 50/46/17
f 50/46/18 49/45/18 48/44/18 51/47/18
f 51/47/19 48/44/19 47/43/19 52/48/19
f 52/48/20 47/43/20 46/42/20 53/49/20
f 11/7/21 10/6/21 29/25/21 42/38/21
f 42/38/22 29/25/22 28/24/22 43/39/22
f 43/39/23 28/24/23 27/23/23 44/40/23
f 44/40/24 27/23/24 26/22/24 45/41/24
f 8/4/25 7/3/25 50/46/25 38/34/25
f 38/34/26 50/46/26 51/47/26 39/35/26
f 39/35/27 51/47/27 52/48/27 40/36/27
f 40/36/28 52/48/28 53/49/28 41/37/28
f 12/8/29 11/7/29 42/38/29 49/45/29
f 49/45/30 42/38/30 43/39/30 48/44/30
f 48/44/31 43/39/31 44/40/31 47/43/31
f 47/43/32 44/40/32 45/41/32 46/42/32
f 9/5/33 6/2/33 37/33/33 22/18/33
f 22/18/34 37/33/34 36/32/34 23/19/34
f 23/19/35 36/32/35 35/31/35 24/20/35
f 24/20/36 35/31/36 34/30/36 25/21/36
f 10/6/37 9/5/37 22/18/37 29/25/37
f 29/25/38 22/18/38 23/19/38 28/24/38
f 28/24/39 23/19/39 24/20/39 27/23/39
f 27/23/40 24/20/40 25/21/40 26/22/40
f 6/2/41 5/1/41 30/26/41 37/33/41
f 37/33/42 30/26/42 31/27/42 36/32/42
f 36/32/43 31/27/43 32/28/43 35/31/43
f 35/31/44 32/28/44 33/29/44 34/30/44
f 5/1/45 8/4/45 38/34/45 30/26/45
f 30/26/46 38/34/46 39/35/46 31/27/46
f 31/27/47 39/35/47 40/36/47 32/28/47
f 32/28/48 40/36/48 41/37/48 33/29/48
f 62/58/49 54/50/49 55/51/49 58/54/49
f 60/56/50 62/58/50 58/54/50 59/55/50
f 61/57/51 56/52/51 62/58/51 60/56/51
f 56/52/52 57/53/52 54/50/52 62/58/52
f 11/7/53 12/8/53 61/57/53 60/56/53
f 7/3/54 8/4/54 57/53/54 56/52/54
f 10/6/55 11/7/55 60/56/55 59/55/55
f 12/8/56 7/3/56 56/52/56 61/57/56
l 2 1
l 4 3
o Cube.001
v -0.724199 4.095515 -0.526789
v 0.727359 4.086922 0.444648
v -0.727359 4.086922 0.444648
v -0.000000 4.087714 1.854523
v 0.000000 21.404461 -1.669483
v -0.245209 21.415413 -1.974268
v 0.246440 21.403288 -2.651657
v 0.245209 21.415413 -1.974268
v -0.246440 21.403288 -2.651657
v -0.245370 21.415987 -3.328397
v 0.000000 21.403971 -3.674760
v 0.245370 21.415987 -3.328397
v -0.000000 3.374899 1.664595
v -0.618120 3.385850 1.287282
v 0.621224 3.373729 0.448700
v 0.618120 3.385850 1.287282
v -0.621224 3.373729 0.448700
v -0.618526 3.386425 -0.389080
v -0.000000 3.374408 -0.505956
v 0.618526 3.386425 -0.389080
v -0.000000 3.360509 0.525473
v -0.374591 17.730623 -1.659456
v -0.374591 14.124710 -0.826022
v -0.419857 10.518799 -0.237570
v -0.567884 6.912888 0.151362
v -0.565417 6.925583 -0.411006
v -0.418033 10.531496 -0.998875
v -0.372964 14.137409 -1.551956
v -0.372964 17.743320 -2.336197
v 0.000000 17.731794 -0.677283
v 0.000000 14.125881 0.227545
v 0.000000 10.519968 0.867334
v -0.000000 6.914057 1.363306
v -0.565046 6.925009 0.987219
v -0.417759 10.530922 0.524464
v -0.372719 14.136833 -0.099395
v -0.372719 17.742746 -0.982068
v 0.372719 17.742746 -0.982068
v 0.372719 14.136831 -0.099395
v 0.417759 10.530920 0.524464
v 0.565046 6.925009 0.987219
v 0.000000 17.731304 -2.682559
v 0.000000 14.125391 -1.911516
v 0.000000 10.519478 -1.329927
v -0.000000 6.913567 -0.799842
v 0.565417 6.925583 -0.411006
v 0.418033 10.531496 -0.998875
v 0.372964 14.137409 -1.551956
v 0.372964 17.743320 -2.336197
v 0.374591 17.730623 -1.659456
v 0.374591 14.124710 -0.826023
v 0.419857 10.518799 -0.237570
v 0.567884 6.912888 0.151362
v 0.000000 23.701641 -3.491514
v -0.080275 23.705223 -3.591292
v 0.080678 23.701256 -3.813053
v 0.080275 23.705223 -3.591292
v -0.080678 23.701256 -3.813053
v -0.080328 23.705414 -4.034600
v 0.000000 23.701479 -4.258844
v 0.080328 23.705414 -4.034600
v 0.000000 23.696930 -3.792750
vn -0.0244 -0.9996 0.0134
vn -0.0208 -0.9997 -0.0143
vn 0.5346 0.0755 0.8417
vn 0.0244 -0.9996 0.0134
vn -0.9974 0.0722 0.0005
vn 0.6873 0.4514 0.5691
vn -0.6873 0.4514 0.5691
vn -0.9974 0.0718 -0.0002
vn -0.5346 0.0755 0.8417
vn 0.0208 -0.9997 -0.0143
vn -0.9999 0.0149 -0.0034
vn -0.9999 0.0153 0.0033
vn 0.3932 -0.0380 -0.9187
vn 0.9999 0.0153 0.0033
vn -0.3932 -0.0380 -0.9187
vn 0.9999 0.0149 -0.0034
vn 0.9994 0.0344 -0.0013
vn 1.0000 -0.0005 -0.0023
vn 0.9999 0.0122 -0.0021
vn 0.9992 0.0406 -0.0025
vn -0.7388 -0.1638 -0.6538
vn -0.6818 -0.1542 -0.7151
vn -0.6554 -0.1134 -0.7467
vn -0.5887 -0.1121 -0.8005
vn 0.9994 0.0352 0.0017
vn 1.0000 0.0006 0.0027
vn 0.9999 0.0129 0.0025
vn 0.9991 0.0412 0.0025
vn 0.7388 -0.1638 -0.6538
vn 0.6818 -0.1542 -0.7151
vn 0.6554 -0.1134 -0.7467
vn 0.5887 -0.1121 -0.8005
vn -0.9994 0.0352 0.0017
vn -1.0000 0.0006 0.0027
vn -0.9999 0.0129 0.0025
vn -0.9991 0.0412 0.0025
vn -0.9994 0.0344 -0.0013
vn -1.0000 -0.0005 -0.0023
vn -0.9999 0.0122 -0.0021
vn -0.9992 0.0406 -0.0025
vn -0.6843 0.2012 0.7009
vn -0.6320 0.1864 0.7522
vn -0.6382 0.1367 0.7576
vn -0.5845 0.1186 0.8027
vn 0.6843 0.2012 0.7009
vn 0.6320 0.1864 0.7522
vn 0.6382 0.1367 0.7576
vn 0.5845 0.1186 0.8027
vn 0.0614 0.9980 -0.0166
vn 0.0672 0.9977 0.0127
vn -0.0672 0.9977 0.0127
vn -0.0614 0.9980 -0.0166
vn 0.8648 -0.1069 -0.4906
vn 0.9974 0.0722 0.0005
vn -0.8648 -0.1069 -0.4906
vn 0.9974 0.0718 -0.0002
vt 0.750000 0.750000
vt 0.875000 0.750000
vt 0.625000 0.625000
vt 0.625000 0.750000
vt 0.875000 0.625000
vt 0.875000 0.500000
vt 0.750000 0.500000
vt 0.625000 0.500000
vt 0.750000 0.750000
vt 0.875000 0.750000
vt 0.625000 0.625000
vt 0.625000 0.750000
vt 0.875000 0.625000
vt 0.875000 0.500000
vt 0.750000 0.500000
vt 0.625000 0.500000
vt 0.750000 0.625000
vt 0.875000 0.625000
vt 0.875000 0.625000
vt 0.875000 0.625000
vt 0.875000 0.625000
vt 0.875000 0.500000
vt 0.875000 0.500000
vt 0.875000 0.500000
vt 0.875000 0.500000
vt 0.750000 0.750000
vt 0.750000 0.750000
vt 0.750000 0.750000
vt 0.750000 0.750000
vt 0.875000 0.750000
vt 0.875000 0.750000
vt 0.875000 0.750000
vt 0.875000 0.750000
vt 0.625000 0.750000
vt 0.625000 0.750000
vt 0.625000 0.750000
vt 0.625000 0.750000
vt 0.750000 0.500000
vt 0.750000 0.500000
vt 0.750000 0.500000
vt 0.750000 0.500000
vt 0.625000 0.500000
vt 0.625000 0.500000
vt 0.625000 0.500000
vt 0.625000 0.500000
vt 0.625000 0.625000
vt 0.625000 0.625000
vt 0.625000 0.625000
vt 0.625000 0.625000
vt 0.750000 0.750000
vt 0.875000 0.750000
vt 0.625000 0.625000
vt 0.625000 0.750000
vt 0.875000 0.625000
vt 0.875000 0.500000
vt 0.750000 0.500000
vt 0.625000 0.500000
vt 0.750000 0.625000
s 0
usemtl Material
f 83/75/57 75/67/57 76/68/57 79/71/57
f 81/73/58 83/75/58 79/71/58 80/72/58
f 95/87/59 75/67/59 78/70/59 103/95/59
f 77/69/60 78/70/60 75/67/60 83/75/60
f 68/60/61 117/109/61 120/112/61 71/63/61
f 70/62/62 119/111/62 116/108/62 67/59/62
f 67/59/63 116/108/63 117/109/63 68/60/63
f 71/63/64 120/112/64 121/113/64 72/64/64
f 96/88/65 76/68/65 75/67/65 95/87/65
f 82/74/66 77/69/66 83/75/66 81/73/66
f 88/80/67 80/72/67 79/71/67 87/79/67
f 87/79/68 79/71/68 76/68/68 96/88/68
f 108/100/69 82/74/69 81/73/69 107/99/69
f 103/95/70 78/70/70 77/69/70 115/107/70
f 107/99/71 81/73/71 80/72/71 88/80/71
f 115/107/72 77/69/72 82/74/72 108/100/72
f 69/61/73 112/104/73 111/103/73 74/66/73
f 112/104/74 113/105/74 110/102/74 111/103/74
f 113/105/75 114/106/75 109/101/75 110/102/75
f 114/106/76 115/107/76 108/100/76 109/101/76
f 73/65/77 104/96/77 91/83/77 72/64/77
f 104/96/78 105/97/78 90/82/78 91/83/78
f 105/97/79 106/98/79 89/81/79 90/82/79
f 106/98/80 107/99/80 88/80/80 89/81/80
f 70/62/81 100/92/81 112/104/81 69/61/81
f 100/92/82 101/93/82 113/105/82 112/104/82
f 101/93/83 102/94/83 114/106/83 113/105/83
f 102/94/84 103/95/84 115/107/84 114/106/84
f 74/66/85 111/103/85 104/96/85 73/65/85
f 111/103/86 110/102/86 105/97/86 104/96/86
f 110/102/87 109/101/87 106/98/87 105/97/87
f 109/101/88 108/100/88 107/99/88 106/98/88
f 71/63/89 84/76/89 99/91/89 68/60/89
f 84/76/90 85/77/90 98/90/90 99/91/90
f 85/77/91 86/78/91 97/89/91 98/90/91
f 86/78/92 87/79/92 96/88/92 97/89/92
f 72/64/93 91/83/93 84/76/93 71/63/93
f 91/83/94 90/82/94 85/77/94 84/76/94
f 90/82/95 89/81/95 86/78/95 85/77/95
f 89/81/96 88/80/96 87/79/96 86/78/96
f 68/60/97 99/91/97 92/84/97 67/59/97
f 99/91/98 98/90/98 93/85/98 92/84/98
f 98/90/99 97/89/99 94/86/99 93/85/99
f 97/89/100 96/88/100 95/87/100 94/86/100
f 67/59/101 92/84/101 100/92/101 70/62/101
f 92/84/102 93/85/102 101/93/102 100/92/102
f 93/85/103 94/86/103 102/94/103 101/93/103
f 94/86/104 95/87/104 103/95/104 102/94/104
f 124/116/105 120/112/105 117/109/105 116/108/105
f 122/114/106 121/113/106 120/112/106 124/116/106
f 123/115/107 122/114/107 124/116/107 118/110/107
f 118/110/108 124/116/108 116/108/108 119/111/108
f 73/65/109 122/114/109 123/115/109 74/66/109
f 69/61/110 118/110/110 119/111/110 70/62/110
f 72/64/111 121/113/111 122/114/111 73/65/111
f 74/66/112 123/115/112 118/110/112 69/61/112
l 64 63
l 66 65
